<?xml version="1.0" standalone="no"?>
<!DOCTYPE svg PUBLIC "-//W3C//DTD SVG 20010904//EN"
 "http://www.w3.org/TR/2001/REC-SVG-20010904/DTD/svg10.dtd">
<svg version="1.0" xmlns="http://www.w3.org/2000/svg"
 width="949.000000pt" height="949.000000pt" viewBox="0 0 949.000000 949.000000"
 preserveAspectRatio="xMidYMid meet">
<metadata>
Created by potrace 1.11, written by Peter Selinger 2001-2013
</metadata>
<g transform="translate(0.000000,949.000000) scale(0.100000,-0.100000)"
fill="#000000" stroke="none">
<path d="M5347 9235 c-1 -2 -63 -5 -137 -9 -215 -10 -326 -25 -515 -72 -610
-152 -1100 -523 -1525 -1153 -49 -73 -90 -134 -90 -135 0 -2 -32 -58 -71 -127
-69 -119 -162 -299 -209 -404 -13 -27 -36 -79 -52 -115 -75 -165 -196 -478
-288 -745 -162 -471 -406 -1347 -545 -1960 -72 -317 -191 -803 -237 -969 -16
-59 -31 -116 -33 -125 -18 -93 -228 -760 -289 -916 -98 -251 -159 -401 -195
-478 -23 -49 -41 -90 -41 -93 0 -9 -186 -376 -222 -439 -19 -33 -39 -69 -46
-80 -58 -106 -273 -441 -313 -489 -5 -6 -45 -58 -88 -116 -100 -133 -265 -330
-369 -440 -44 -47 -79 -86 -78 -88 2 -1 36 -5 77 -10 145 -14 546 -7 646 12
11 3 44 7 73 11 103 13 452 106 475 126 5 5 16 9 25 9 31 0 336 158 434 224
444 302 792 728 1106 1356 87 173 190 406 256 580 25 63 49 124 54 135 22 50
135 382 203 600 63 201 116 385 231 800 69 248 157 603 245 985 117 508 234
962 322 1255 88 290 261 790 309 890 5 11 39 90 76 175 135 314 313 647 499
930 85 131 230 334 288 406 76 94 249 294 310 359 41 44 73 83 71 86 -2 4 -66
10 -141 14 -76 3 -155 8 -176 9 -20 1 -38 2 -40 1z"/>
<path d="M9167 9234 c-1 -1 -78 -4 -172 -7 -93 -4 -179 -8 -190 -10 -11 -3
-42 -8 -70 -11 -27 -4 -66 -10 -85 -13 -19 -2 -103 -22 -187 -43 -195 -50
-291 -86 -484 -182 -447 -222 -854 -638 -1179 -1203 -73 -127 -193 -361 -234
-455 -115 -266 -158 -371 -226 -555 -97 -263 -279 -819 -305 -935 -2 -8 -20
-71 -39 -140 -50 -175 -53 -184 -80 -285 -87 -322 -150 -573 -221 -880 -163
-707 -247 -1032 -366 -1425 -143 -467 -262 -786 -441 -1180 -46 -100 -178
-362 -198 -390 -9 -14 -20 -33 -23 -42 -10 -27 -150 -256 -240 -392 -175 -265
-388 -532 -594 -746 -29 -30 -51 -56 -49 -58 9 -8 194 -17 356 -17 154 0 306
8 366 19 10 2 44 7 74 11 30 3 71 11 90 15 19 5 51 12 70 15 62 11 210 55 315
95 101 37 321 143 374 179 14 10 59 39 99 65 163 106 370 291 523 466 322 370
628 928 879 1600 125 337 285 840 385 1215 8 28 37 136 65 240 28 105 53 197
55 205 2 8 35 143 73 300 39 157 82 339 97 405 75 336 204 847 272 1080 19 66
41 143 48 170 18 64 111 352 169 521 220 641 527 1243 880 1729 54 75 232 300
276 350 15 17 49 55 76 85 26 30 75 83 108 118 33 34 58 62 56 63 -3 0 -14 2
-25 4 -30 6 -293 23 -298 19z"/>
</g>
</svg>
